<svg id="Layer_1" data-name="Layer 1" xmlns="http://www.w3.org/2000/svg" viewBox="0 0 89.28 80.04"><defs><style>.cls-1{fill:#5840a3;}</style></defs><path class="cls-1" d="M60.72,19.94c4.74,10.62,1.26,23.51-10,30.7a32.77,32.77,0,0,1-23.56,4.57A5.45,5.45,0,0,0,24,55.6c-.88.37-1.77.72-2.65,1.07,3.92,12.46,16.88,21.6,32.27,21.6,18.5,0,33.5-13.2,33.5-29.5C87.12,34.63,75.81,22.81,60.72,19.94Z"/><path class="cls-1" d="M23.12,58.27l3-1L32,55.69a38.06,38.06,0,0,1-4.93-.48A5.45,5.45,0,0,0,24,55.6c-5.2,2.14-10.44,4.14-16.07,4.84a2.69,2.69,0,0,1-2.4-.37l2.31-2A16.9,16.9,0,0,0,12,52.94c1.55-3.06,1.47-3.46-.95-5.84C.2,36.44,1.12,20,13.12,10.42A32.81,32.81,0,0,1,53,10.18C64.16,18.9,65.67,33.42,58,43.82l7.62-4.26-.52-18.91a3.52,3.52,0,0,1-.88-1.36A24.36,24.36,0,0,0,59.86,12C49.76.11,31.94-3.5,17.44,3.68,6.66,9,.17,17.5,0,29.9c-.09,7.39,2.89,13.69,8,18.94a2.23,2.23,0,0,1,.35,3.28,19.82,19.82,0,0,1-4.29,4.57A27.85,27.85,0,0,0,1,59.32c-1.57,1.71-1,3.43,1.14,4.19a10.86,10.86,0,0,0,3.8.53c5.5-.15,10.63-1.85,15.7-3.78,1-.38,1.66-.67,2.4.68.27.5.56,1,.85,1.45Z"/><path class="cls-1" d="M85.29,72.69A19.65,19.65,0,0,1,81,68.12a2.11,2.11,0,0,1,0-2.85l-17.86-1,2.76,11.94c.54-.47,1.1-.23,1.86.05,5.07,1.93,10.19,3.63,15.69,3.78a10.86,10.86,0,0,0,3.8-.53c2.19-.76,2.71-2.48,1.15-4.19A27.85,27.85,0,0,0,85.29,72.69Z"/></svg>