<svg id="Layer_1" data-name="Layer 1" xmlns="http://www.w3.org/2000/svg" xmlns:xlink="http://www.w3.org/1999/xlink" viewBox="0 0 124.88 124.65"><defs><style>.cls-1{fill:none;}.cls-2{clip-path:url(#clip-path);}.cls-3{fill:#4f92fe;}.cls-4{fill:#306cfe;}.cls-5{fill:#fad3a0;}.cls-6{fill:#242546;}.cls-7{fill:#fcfcfd;}.cls-8{fill:#f6bc8e;}.cls-9{fill:#f6bb8d;}.cls-10{fill:#272848;}</style><clipPath id="clip-path"><circle class="cls-1" cx="62.44" cy="62.32" r="61"/></clipPath></defs><g class="cls-2"><path class="cls-3" d="M59,0h6.58l6.58.74a22.83,22.83,0,0,0,3.67.69l3.32.83,3.93,1.25.69.19a14.22,14.22,0,0,0,3,1.2l3.66,1.67a3.58,3.58,0,0,0,1.43.75l2.2,1.3,3.7,2.31a.22.22,0,0,0,.14.08l3.5,2.64,1.2,1,2.45,2.19a7.17,7.17,0,0,0,1.62,1.49,11,11,0,0,0,2,2.17L110,21.92l2.44,2.94.47.72c1.54,2.43,3.09,4.86,4.63,7.3l2.2,4.46a12.81,12.81,0,0,0,1.14,2.88l1.22,3.62c.6,2.42,1.21,4.85,1.81,7.28a22.56,22.56,0,0,0,.52,3.66c.09,1.21.17,2.43.26,3.64s.16,2.44.23,3.67l0,2.43c-.4,1.6-.12,3.26-.44,4.87-.17,1.21-.33,2.43-.5,3.64q-.84,3.66-1.7,7.32L121,84l-3.23,7.3c-1.41,2.38-2.77,4.8-4.38,7a4.07,4.07,0,0,0-1,1.45,14.51,14.51,0,0,0-2,2.46,8.2,8.2,0,0,0-1.7,1.92l-1.44,1.49-2.21,2.17-1.81,1.71a6.77,6.77,0,0,0-1.84,1.49l-2.79,2.16a1.68,1.68,0,0,0-.86.51l-.48.26a2.78,2.78,0,0,0-.13-.71A34,34,0,0,0,86.91,99.87,40,40,0,0,0,73.41,93a.54.54,0,0,1-.1-.2,20.69,20.69,0,0,0,9.25-8.06,21.63,21.63,0,0,0,3.28-12.66,6.59,6.59,0,0,0,2.88-.78,5.84,5.84,0,0,0,1-9.46c0-4.1.08-8.19,0-12.29a19.91,19.91,0,0,0-.9-5.33c-1.66-5.62-5.49-9.57-10-13a1.27,1.27,0,0,1-.61-1.58c.38-1.63.86-3.27.36-5-.28-1-.64-1.22-1.67-.94a23.15,23.15,0,0,1-9,.46,69.35,69.35,0,0,0-7.71-.75c-5.6,0-10.52,2-15,5.32-5.92,4.37-9.71,10-10,17.54-.2,5.18,0,10.38,0,15.57-1.82,1.85-2.55,4-1.56,6.48A5.72,5.72,0,0,0,39,72.08a33.3,33.3,0,0,0,.22,4.23c1.25,7.64,5.5,13,12.31,16.48a.47.47,0,0,1-.06.2c-1.27.43-2.55.8-3.78,1.29a35.92,35.92,0,0,0-17.79,14.56A15.09,15.09,0,0,0,27.58,114l-1.34-.77A7.12,7.12,0,0,0,24.67,112a86.21,86.21,0,0,1-7.86-7.18c-1.84-2-3.44-4.16-5.19-6.21a13.14,13.14,0,0,0-1.56-2.28l-1-1.61c-.66-1.13-1.31-2.26-2-3.39L5.39,87.65,3.91,84,2.74,80.71l-.05-.38-1-3.64L1,73l-.5-3.64c-.32-1.61,0-3.27-.44-4.87,0-.81,0-1.62,0-2.43l.23-3.67.26-3.64A19.68,19.68,0,0,0,1,51.12l.78-3.63,1-3.6A25,25,0,0,0,4,40.23c.53-1.24,1-2.47,1.57-3.71l1-2,.81-1.67a31.42,31.42,0,0,0,2.15-3.67l.56-.87L12,25.58a15.92,15.92,0,0,0,1.72-2.35c.58-.27.81-.86,1.19-1.31a27.57,27.57,0,0,0,2.45-2.84l.79-.79a80.7,80.7,0,0,1,6.51-5.6A12.82,12.82,0,0,0,27,11l1.42-.93L35.9,5.86l3.39-1.47,3.64-1.27,3.69-1.07,3.63-.86L54.4.49A23.26,23.26,0,0,0,59,0Z"/><path class="cls-4" d="M73.41,93a40,40,0,0,1,13.5,6.87,34,34,0,0,1,10.27,13.37,2.78,2.78,0,0,1,.13.71c-2.19,1.52-4.52,2.81-6.84,4.12a.56.56,0,0,0-.5.24l-3.15,1.45-.31.24c-1.07.55-2.36.46-3.36,1.18l-3.71,1.14-3.59.88c-2.21.34-4.4.75-6.62,1-1.12.15-2.31-.16-3.38.41H58.79c-.09-.07-.18-.21-.27-.21a69.61,69.61,0,0,1-8.27-1l-3.64-.78a19.22,19.22,0,0,0-3.38-1l-7.61-3.06L32,116.82l-3.67-2.31-.75-.56a15.09,15.09,0,0,1,2.36-5.11A35.92,35.92,0,0,1,47.73,94.28c1.23-.49,2.51-.86,3.78-1.29a14,14,0,0,0-.58,6.3,11.68,11.68,0,0,0,22.55,1.89A13,13,0,0,0,73.41,93Z"/><path class="cls-5" d="M85.84,72.08a21.63,21.63,0,0,1-3.28,12.66,20.61,20.61,0,0,1-9.25,8.05l-2.86,1.44a1.08,1.08,0,0,0-.36,0,26.35,26.35,0,0,1-15.65,0l-2.87-1.44C44.76,89.32,40.51,84,39.26,76.31A33.3,33.3,0,0,1,39,72.08c0-3.91,0-7.82,0-11.73v-8c5.39,4.82,11.47,7.14,18.44,6.31,7.93-1,14-4.87,17.45-12.24.19-.4.25-.91,1-.35,3.12,2.49,6.29,4.9,9.46,7.33a1.39,1.39,0,0,1,.51,1.27c0,1.9,0,3.8,0,5.71ZM63.48,86.69a8.7,8.7,0,0,0,6.4-3.92c.41-.6.49-1.21-.15-1.69s-1.14-.18-1.53.41c-.12.16-.25.32-.36.49a6.55,6.55,0,0,1-8.15,2.23,7.19,7.19,0,0,1-2.94-2.63c-.61-.87-1.56-1-2-.2s.06,1.22.42,1.67A9.25,9.25,0,0,0,63.48,86.69ZM54.64,65.21a3,3,0,0,0-2.86-2.89,2.93,2.93,0,1,0-.06,5.85A3,3,0,0,0,54.64,65.21Zm15.6.06a3,3,0,0,0,3,2.9,3.12,3.12,0,0,0,2.86-2.9,3.07,3.07,0,0,0-3-2.95A3,3,0,0,0,70.24,65.27ZM62.43,76c-.32,0-.65,0-1,0s-.7-.14-.87.24.1.7.32,1a2.13,2.13,0,0,0,2.84.25,1.24,1.24,0,0,0,.57-1.14c-.13-.54-.67-.28-1-.33A8,8,0,0,0,62.43,76Z"/><path class="cls-6" d="M85.86,60.35c0-1.91,0-3.81,0-5.71a1.39,1.39,0,0,0-.51-1.27C82.17,50.94,79,48.53,75.88,46c-.71-.56-.77,0-1,.35-3.5,7.37-9.52,11.29-17.45,12.24-7,.83-13-1.49-18.44-6.31v8a7.41,7.41,0,0,0-3.85,1.49c0-5.19-.17-10.39,0-15.57.28-7.51,4.07-13.17,10-17.54,4.46-3.28,9.38-5.35,15-5.32a69.35,69.35,0,0,1,7.71.75,23.15,23.15,0,0,0,9-.46c1-.28,1.39,0,1.67.94.5,1.74,0,3.38-.36,5a1.27,1.27,0,0,0,.61,1.58c4.51,3.42,8.34,7.37,10,13a19.91,19.91,0,0,1,.9,5.33c.06,4.1,0,8.19,0,12.29A6.11,6.11,0,0,0,85.86,60.35Z"/><path class="cls-7" d="M70.45,94.23l2.86-1.44a.51.51,0,0,0,.1.21,13,13,0,0,1,.07,8.18,11.68,11.68,0,0,1-22.55-1.89,14,14,0,0,1,.58-6.3.47.47,0,0,0,.06-.2l2.87,1.44v3.39l.18.29a7.72,7.72,0,0,0,5.56,6.86,8.11,8.11,0,0,0,8.63-2.8,10.28,10.28,0,0,0,1.64-7v-.72Z"/><path class="cls-8" d="M85.86,60.35a6.11,6.11,0,0,1,3.84,1.49,5.84,5.84,0,0,1-1,9.46,6.59,6.59,0,0,1-2.88.78C85.85,68.17,85.85,64.26,85.86,60.35Z"/><path class="cls-8" d="M35.18,61.84A7.41,7.41,0,0,1,39,60.35c0,3.91,0,7.82,0,11.73a5.72,5.72,0,0,1-5.42-3.76C32.63,65.83,33.36,63.69,35.18,61.84Z"/><path class="cls-8" d="M70.45,95a10.28,10.28,0,0,1-1.64,7,8.11,8.11,0,0,1-8.63,2.8,7.72,7.72,0,0,1-5.56-6.86l-.18-.29V94.23a26.35,26.35,0,0,0,15.65,0,1.08,1.08,0,0,1,.36,0c0,.15,0,.31,0,.47s-.08.06-.07.08A1.3,1.3,0,0,0,70.45,95Z"/><path class="cls-9" d="M63.48,86.69a9.25,9.25,0,0,1-8.29-3.64c-.36-.45-.78-1-.42-1.67s1.37-.67,2,.2a7.19,7.19,0,0,0,2.94,2.63A6.55,6.55,0,0,0,67.84,82c.11-.17.24-.33.36-.49.39-.59.89-.87,1.53-.41s.56,1.09.15,1.69A8.7,8.7,0,0,1,63.48,86.69Z"/><path class="cls-10" d="M54.64,65.21a3,3,0,0,1-2.92,3,2.93,2.93,0,1,1,.06-5.85A3,3,0,0,1,54.64,65.21Z"/><path class="cls-10" d="M70.24,65.27A3,3,0,0,1,73,62.32a3.07,3.07,0,0,1,3,2.95,3.12,3.12,0,0,1-2.86,2.9A3,3,0,0,1,70.24,65.27Z"/><path class="cls-9" d="M62.43,76a8,8,0,0,1,.85,0c.37.05.91-.21,1,.33a1.24,1.24,0,0,1-.57,1.14,2.13,2.13,0,0,1-2.84-.25c-.22-.28-.49-.6-.32-1s.57-.22.87-.24S62.11,76,62.43,76Z"/><path class="cls-5" d="M54.44,97.62l.18.29Z"/><path class="cls-5" d="M70.45,95a1.3,1.3,0,0,1-.08-.17s0,0,.07-.08S70.45,94.86,70.45,95Z"/></g></svg>